# xmcd
#
# Track frame offsets:
#	150
#	15892
#	31197
#	44997
#	60930
#	76937
#	91467
#	106137
#	122030
#	140375
#	158280
#	172822
#	189755
#
# Disc length: 2753
#
# Revision: 1
# Processed by: cddbd v1.5.1PL0 Copyright (c) Steve Scherf et al.
# Submitted via: VisiTrax 2.9.5.180 - For more info visit www.synapsa.com
# Normalized: r0:DSETVAR1
#
DISCID=8a0abf0d
DTITLE=Various Artist - CDX 160 April 1997
DYEAR=1997
DGENRE=
TTITLE0=Blake and Brian - Another perfect day
TTITLE1=Tracy Byrd - Don't love make a diamond shine
TTITLE2=Michael Peterson - Drink, swear, steal and lie
TTITLE3=River Road - I broke it, I'll fix it
TTITLE4=Reba McEntire - I'd rather ride around with you
TTITLE5=M C Potts - I'm so sorry
TTITLE6=Terri Clark - Just the same
TTITLE7=Randy Travis - King of the road
TTITLE8=Charlie Daniels Band/John Berry/Hal Ketchum - Long haired country boy
TTITLE9=Deryl Dodd - Movin' out to the country
TTITLE10=Brent Lamb - The wall came tumblin' down
TTITLE11=Jess McEntyre - I can't take you anywhere
TTITLE12=Shelly Streeter - White lace promises
EXTD=
EXTT0=
EXTT1=
EXTT2=
EXTT3=
EXTT4=
EXTT5=
EXTT6=
EXTT7=
EXTT8=
EXTT9=
EXTT10=
EXTT11=
EXTT12=
PLAYORDER=
